<?xml version="1.0" encoding="utf-8"?>
<!-- Generator: Adobe Illustrator 27.5.0, SVG Export Plug-In . SVG Version: 6.00 Build 0)  -->
<svg version="1.1" id="Layer_1" xmlns="http://www.w3.org/2000/svg" xmlns:xlink="http://www.w3.org/1999/xlink" x="0px" y="0px"
	 viewBox="0 0 2807 1604" style="enable-background:new 0 0 2807 1604;" xml:space="preserve">
<g>
	<g>
		<defs>
			<rect id="SVGID_1_" width="2806.243" height="1603.568"/>
		</defs>
		<use xlink:href="#SVGID_1_"  style="overflow:visible;fill:#002B41;"/>
		<clipPath id="SVGID_00000034085153932900446430000004090527813596008321_">
			<use xlink:href="#SVGID_1_"  style="overflow:visible;"/>
		</clipPath>
		<path style="clip-path:url(#SVGID_00000034085153932900446430000004090527813596008321_);fill:#FFFFFF;" d="M21.465,77.213
			c66.483-5.39,68.088-6.511,78.041-48.683c9.954-42.172,9.954-42.172-67.285-42.172c-77.239,0-77.239,0-77.239,48.122
			C-45.018,82.604-45.018,82.604,21.465,77.213z"/>
		<path style="clip-path:url(#SVGID_00000034085153932900446430000004090527813596008321_);fill:#FFFFFF;" d="M1466.065,38.373
			c4.458,51.576,4.458,51.576,97.416,36.232c92.958-15.344,92.958-15.344,122.066-51.576c29.108-36.232,29.108-36.232-97.416-36.232
			C1461.608-13.203,1461.608-13.203,1466.065,38.373z"/>
		<path style="clip-path:url(#SVGID_00000034085153932900446430000004090527813596008321_);fill:#FFFFFF;" d="M385.124,43.477
			c23.673,56.428,23.673,56.428,100.576,0c76.902-56.427,76.902-56.427-23.673-56.427C361.451-12.95,361.451-12.95,385.124,43.477z"
			/>
		<path style="clip-path:url(#SVGID_00000034085153932900446430000004090527813596008321_);fill:#FFFFFF;" d="M1220.882,74.398
			c57.082,79.171,57.082,79.171,96.167,83.148c39.086,3.978,39.086,3.978,61.75-25.215s22.664-29.193,18.001-83.148
			c-4.663-53.954-4.663-53.954-118.832-53.954C1163.8-4.772,1163.8-4.772,1220.882,74.398z"/>
		<path style="clip-path:url(#SVGID_00000034085153932900446430000004090527813596008321_);fill:#FFFFFF;" d="M2051.05,7.33
			c17.191,22.686,17.191,22.686,88.364,43.363c71.172,20.677,71.172,20.677,102.462-22.687c31.29-43.362,31.29-43.362-88.364-43.362
			S2033.859-15.357,2051.05,7.33z"/>
		<path style="clip-path:url(#SVGID_00000034085153932900446430000004090527813596008321_);fill:#FFFFFF;" d="M660.956,68.333
			c30.628,71.425,30.628,71.425,57.375,89.019c26.748,17.594,26.748,17.594,55.833,6.11c29.085-11.484,29.085-11.484,35.099-89.191
			c6.014-77.707,6.014-77.879-86.436-77.707C630.327-3.264,630.328-3.092,660.956,68.333z"/>
		<path style="clip-path:url(#SVGID_00000034085153932900446430000004090527813596008321_);fill:#FFFFFF;" d="M228.005,129.36
			c82.389,47.453,82.389,47.453,97.122,44.85c14.733-2.604,14.733-2.604,24.741-29.125c10.008-26.522,10.008-26.522-15.498-87.316
			C308.865-3.027,308.865-3.027,237.264-3.027c-71.601,0-71.601,0-81.625,42.466C145.616,81.906,145.616,81.906,228.005,129.36z"/>
		<path style="clip-path:url(#SVGID_00000034085153932900446430000004090527813596008321_);fill:#FFFFFF;" d="M901.633,155.677
			c43.318,6.075,43.318,6.075,94.87-77.266c51.553-83.34,51.553-83.34-37.338-83.34s-88.891,0-94.87,77.266
			C858.314,149.603,858.314,149.603,901.633,155.677z"/>
		<path style="clip-path:url(#SVGID_00000034085153932900446430000004090527813596008321_);fill:#FFFFFF;" d="M2483.56,70.933
			c10.886,73.08,10.886,73.08,28.373,93.559c17.487,20.479,17.487,20.479,51.048,16.418c33.561-4.061,33.561-4.061,84.312-69.877
			c50.75-65.816,50.75-65.816,52.883-89.498c2.133-23.682,2.133-23.682-112.685-23.682
			C2472.674-2.146,2472.674-2.146,2483.56,70.933z"/>
		<path style="clip-path:url(#SVGID_00000034085153932900446430000004090527813596008321_);fill:#FFFFFF;" d="M2839.768,124.818
			c63.663,79.159,63.663,79.159,147.826-4.629c84.163-83.788,84.163-83.788,84.163-103.029c0-19.24,0-19.24-145.676-19.24
			c-145.675,0-145.675,0-147.825,23.869C2776.105,45.658,2776.106,45.658,2839.768,124.818z"/>
		<path style="clip-path:url(#SVGID_00000034085153932900446430000004090527813596008321_);fill:#FFFFFF;" d="M2267.803,123.944
			c10.161,35.053,10.161,35.053,88.146,24.801c77.983-10.252,77.983-10.252,67.273-82.147c-10.71-71.895-10.71-71.895-54.163-71.895
			c-43.453,0-43.453,0-77.435,47.094S2257.642,88.892,2267.803,123.944z"/>
		<path style="clip-path:url(#SVGID_00000034085153932900446430000004090527813596008321_);fill:#FFFFFF;" d="M435.639,211.847
			c32.502,27.978,32.502,27.978,117.432-16.741c84.93-44.718,84.93-44.718,56.046-112.075
			c-28.884-67.357-28.884-67.357-107.453-9.707s-78.569,57.65-88.549,84.098C403.136,183.868,403.136,183.868,435.639,211.847z"/>
		<path style="clip-path:url(#SVGID_00000034085153932900446430000004090527813596008321_);fill:#FFFFFF;" d="M2083.12,161.444
			c11.511,91.022,11.511,91.022,63.012,84.363c51.501-6.66,51.501-6.66,67.357-35.086c15.856-28.427,15.856-28.427,5.403-64.487
			c-10.454-36.061-10.453-36.061-78.868-55.936C2071.609,70.421,2071.609,70.421,2083.12,161.444z"/>
		<path style="clip-path:url(#SVGID_00000034085153932900446430000004090527813596008321_);fill:#FFFFFF;" d="M1023.08,235.571
			c36.735,53.06,36.735,53.06,58.002,56.079c21.268,3.019,21.268,3.019,85.389-57.852c64.121-60.872,64.121-60.872,5.39-142.329
			c-78.879-109.402-61.211-109.91-132.164,4.792C986.345,182.511,986.345,182.511,1023.08,235.571z"/>
		<path style="clip-path:url(#SVGID_00000034085153932900446430000004090527813596008321_);fill:#FFFFFF;" d="M1901.749,137.274
			c14.504,130.178,14.504,130.178,73.189,128.659c84.663-2.192,75.606,9.363,60.429-110.644
			c-12.121-95.845-12.121-95.845-31.956-122.019c-19.834-26.174-19.834-26.174-68-26.174
			C1887.245,7.096,1887.245,7.096,1901.749,137.274z"/>
		<path style="clip-path:url(#SVGID_00000034085153932900446430000004090527813596008321_);fill:#FFFFFF;" d="M1710.816,173.249
			c4.876,84.913,4.876,84.913,72.712,98.294c99.195,19.567,89.072,32.684,70.846-130.901c-14.673-131.7-14.673-131.7-49.662-131.7
			c-34.989,0-34.989,0-66.881,39.697C1705.939,88.335,1705.939,88.335,1710.816,173.249z"/>
		<path style="clip-path:url(#SVGID_00000034085153932900446430000004090527813596008321_);fill:#FFFFFF;" d="M2695.751,247.155
			c55.058,45.984,55.058,45.984,108.403,28.982c76.507-24.384,77.737-19.817-3.867-121.287
			c-63.242-78.636-63.241-78.636-111.418-16.157C2640.692,201.171,2640.692,201.171,2695.751,247.155z"/>
		<path style="clip-path:url(#SVGID_00000034085153932900446430000004090527813596008321_);fill:#FFFFFF;" d="M1421.242,206.298
			c7.386,13.703,7.387,13.703,105.011,51.207c97.625,37.505,97.625,37.505,112.759,25.594
			c15.134-11.911,15.134-11.911,10.332-95.512c-4.801-83.601-4.801-83.601-97.647-68.276
			c-92.846,15.326-92.846,15.326-115.344,44.305C1413.855,192.595,1413.855,192.595,1421.242,206.298z"/>
		<path style="clip-path:url(#SVGID_00000034085153932900446430000004090527813596008321_);fill:#FFFFFF;" d="M-0.474,312.293
			c48.042-5.312,48.042-5.312,64.117-98.532C79.717,120.54,79.717,120.54,15.6,125.738c-64.117,5.198-64.117,5.198-64.117,98.533
			C-48.517,317.605-48.517,317.605-0.474,312.293z"/>
		<path style="clip-path:url(#SVGID_00000034085153932900446430000004090527813596008321_);fill:#FFFFFF;" d="M135.397,343.754
			c42.364,28.031,42.364,28.031,97.306-49.213c54.943-77.245,54.943-77.245-25.853-123.782
			c-80.796-46.536-80.796-46.536-97.307,49.214C93.033,315.722,93.033,315.722,135.397,343.754z"/>
		<path style="clip-path:url(#SVGID_00000034085153932900446430000004090527813596008321_);fill:#FFFFFF;" d="M2308.478,342.78
			c58.35,70.933,58.35,70.933,82.668,66.627c24.318-4.306,24.318-4.306,54.371-89.42c30.052-85.114,30.052-85.114,13.099-104.969
			c-16.954-19.855-16.954-19.855-97.22-9.303c-80.266,10.551-80.266,10.551-95.767,38.341
			C2250.128,271.846,2250.128,271.846,2308.478,342.78z"/>
		<path style="clip-path:url(#SVGID_00000034085153932900446430000004090527813596008321_);fill:#FFFFFF;" d="M2943.329,305.249
			c26.005,33.724,26.005,33.724,85.076,52.161c59.071,18.436,59.071,18.436,59.071-128.852s0-147.288-81.875-65.777
			C2903.032,264.891,2904.968,255.503,2943.329,305.249z"/>
		<path style="clip-path:url(#SVGID_00000034085153932900446430000004090527813596008321_);fill:#FFFFFF;" d="M508.203,335.719
			c16.475,53.577,16.475,53.577,103.485,56.109c87.009,2.533,87.009,2.533,94.796-81.504c7.787-84.037,7.787-84.037-18.102-101.066
			c-25.889-17.03-25.889-17.03-111.271,27.928C491.728,282.142,491.728,282.142,508.203,335.719z"/>
		<path style="clip-path:url(#SVGID_00000034085153932900446430000004090527813596008321_);fill:#FFFFFF;" d="M797.86,445.106
			c33.625,37.566,33.625,37.566,119.805-38.201c86.181-75.766,86.181-75.766,49.819-128.287
			c-36.361-52.521-36.361-52.521-82.122-58.938c-45.761-6.417-45.761-6.417-75.532,5.338
			c-29.771,11.755-29.771,11.755-37.683,97.138C764.235,407.54,764.235,407.54,797.86,445.106z"/>
		<path style="clip-path:url(#SVGID_00000034085153932900446430000004090527813596008321_);fill:#FFFFFF;" d="M2507.062,443.357
			c35.534,25.336,35.534,25.336,92.962,23.493c57.427-1.843,57.427-1.843,83.426-67.306c25.997-65.463,25.997-65.463-29.815-112.077
			c-55.813-46.614-55.813-46.614-89.104-42.585c-33.292,4.028-33.292,4.028-63.148,88.584
			C2471.527,418.021,2471.527,418.021,2507.062,443.357z"/>
		<path style="clip-path:url(#SVGID_00000034085153932900446430000004090527813596008321_);fill:#FFFFFF;" d="M1160.755,372.85
			c19.635,33.736,19.635,33.736,87.867,61.165c68.232,27.429,68.232,27.429,88.78,21.856c20.548-5.573,20.548-5.573,23.275-104.008
			c2.727-98.435,2.727-98.435-4.956-112.685c-7.682-14.251-7.682-14.251-46.806-18.232c-39.125-3.982-39.125-3.982-103.461,57.093
			C1141.119,339.114,1141.119,339.114,1160.755,372.85z"/>
		<path style="clip-path:url(#SVGID_00000034085153932900446430000004090527813596008321_);fill:#FFFFFF;" d="M1508.976,453.431
			c80.028-8.319,80.028-8.319,92.8-61.76c12.772-53.441,12.772-53.441-81.362-89.604c-94.133-36.163-94.133-36.163-96.782,59.494
			C1428.948,461.75,1428.948,461.75,1508.976,453.431z"/>
		<path style="clip-path:url(#SVGID_00000034085153932900446430000004090527813596008321_);fill:#FFFFFF;" d="M223.874,431.364
			c8.065,27.1,8.065,27.1,48.949,49.743c40.885,22.643,40.885,22.643,90.42,8.727c49.535-13.916,49.535-13.916,73.634-47.567
			c24.1-33.652,24.1-33.652,7.004-89.246c-17.096-55.594-17.096-55.594-50.895-84.688c-56.036-48.236-55.439-35.219-120.354,56.046
			C215.809,404.265,215.809,404.265,223.874,431.364z"/>
		<path style="clip-path:url(#SVGID_00000034085153932900446430000004090527813596008321_);fill:#FFFFFF;" d="M2106.112,403.577
			c18.422,81.631,18.422,81.631,112.349,62.511c105.462-30.213,105.462-30.213,47.487-100.692
			c-57.976-70.479-57.976-70.479-111.192-63.598C2075.755,312.014,2083.397,302.924,2106.112,403.577z"/>
		<path style="clip-path:url(#SVGID_00000034085153932900446430000004090527813596008321_);fill:#FFFFFF;" d="M1688.932,524.213
			c44.07,58.29,44.07,58.29,91.564,30.496c47.495-27.795,47.495-27.795,52.437-112.872c4.942-85.078,4.942-85.078-62.551-98.391
			c-67.493-13.314-67.493-13.314-83.242-0.918c-15.749,12.395-15.749,12.395-29.013,67.895
			C1644.863,465.923,1644.863,465.923,1688.932,524.213z"/>
		<path style="clip-path:url(#SVGID_00000034085153932900446430000004090527813596008321_);fill:#FFFFFF;" d="M2760.686,531.849
			c47.311,45.236,61.802,43.403,111.745-51.417c49.943-94.82,49.943-94.82,24.871-127.334
			c-25.072-32.514-25.072-32.514-78.264-15.56c-53.192,16.953-53.192,16.953-79.427,83.015
			C2713.375,486.613,2713.375,486.613,2760.686,531.849z"/>
		<path style="clip-path:url(#SVGID_00000034085153932900446430000004090527813596008321_);fill:#FFFFFF;" d="M1959.468,542.501
			c73.346,17.855,73.346,17.855,92.114-11.087c18.768-28.942,18.768-28.942,0.162-111.391
			c-18.606-82.448-18.606-82.448-77.787-80.916c-87.024,2.253-76.69-6.342-82.878,100.202
			C1886.121,524.646,1886.121,524.646,1959.468,542.501z"/>
		<path style="clip-path:url(#SVGID_00000034085153932900446430000004090527813596008321_);fill:#FFFFFF;" d="M11.449,530.04
			c50.092,27.639,50.092,27.639,102.099-12.247c52.007-39.887,52.007-39.887,44.065-66.573
			c-7.942-26.686-7.942-26.686-52.372-56.085c-44.431-29.399-44.431-29.399-94.157-23.9c-49.726,5.498-49.726,5.498-49.726,68.333
			C-38.643,502.402-38.643,502.402,11.449,530.04z"/>
		<path style="clip-path:url(#SVGID_00000034085153932900446430000004090527813596008321_);fill:#FFFFFF;" d="M860.282,538.979
			c2.206,17.035,2.206,17.035,37.716,45.265c35.51,28.23,35.51,28.23,98.596,18.379c63.085-9.851,63.085-9.851,91.397-85.492
			c28.311-75.641,28.311-75.641,8.431-109.797s-19.88-34.156-41.082-37.165c-21.202-3.009-21.202-3.009-109.232,74.383
			C858.076,521.944,858.076,521.944,860.282,538.979z"/>
		<path style="clip-path:url(#SVGID_00000034085153932900446430000004090527813596008321_);fill:#FFFFFF;" d="M2976.435,565.019
			c107.395-18.956,107.395-18.956,107.395-72.683c0-53.728,0-53.728-59.354-72.253c-59.355-18.526-59.355-18.526-107.394,72.683
			C2869.041,583.975,2869.041,583.975,2976.435,565.019z"/>
		<path style="clip-path:url(#SVGID_00000034085153932900446430000004090527813596008321_);fill:#FFFFFF;" d="M527.012,582.227
			c44.69,65.337,44.69,65.337,101.169,65.863c56.479,0.526,56.479,0.526,104.843-39.307c48.364-39.833,48.364-39.833,46.132-57.073
			c-2.233-17.239-2.232-17.239-37.128-56.224c-34.895-38.985-34.895-38.985-123.824-41.573
			c-88.928-2.589-88.928-2.589-112.406,30.194C482.321,516.89,482.321,516.89,527.012,582.227z"/>
		<path style="clip-path:url(#SVGID_00000034085153932900446430000004090527813596008321_);fill:#FFFFFF;" d="M1164.178,640.767
			c49.753,29.859,49.753,29.859,91.99-47.659c42.236-77.517,42.236-77.517-22.218-103.428c-64.454-25.91-64.454-25.91-91.99,47.659
			C1114.424,610.909,1114.424,610.909,1164.178,640.767z"/>
		<path style="clip-path:url(#SVGID_00000034085153932900446430000004090527813596008321_);fill:#FFFFFF;" d="M1470.205,602.092
			c25.477,85.374,25.477,85.374,120.557,57.642c99.059-41.352,99.059-41.352,54.498-100.291
			c-44.561-58.939-44.561-58.939-122.547-50.833C1444.727,516.718,1444.727,516.718,1470.205,602.092z"/>
		<path style="clip-path:url(#SVGID_00000034085153932900446430000004090527813596008321_);fill:#FFFFFF;" d="M2100.33,653.638
			c15.736,48.769,15.736,48.769,81.396,73.827c92.792,35.413,79.178,45.136,105.161-102.733
			c20.453-116.402,20.453-116.402-71.796-97.623c-92.25,18.778-92.25,18.778-111.373,48.269
			C2084.594,604.868,2084.594,604.868,2100.33,653.638z"/>
		<path style="clip-path:url(#SVGID_00000034085153932900446430000004090527813596008321_);fill:#FFFFFF;" d="M-12.319,711.888
			c39.98-14.559,39.98-14.559,47.303-61.416c7.322-46.857,7.322-46.856-39.981-72.956c-47.303-26.1-47.303-26.1-47.303,61.415
			C-52.3,726.447-52.3,726.447-12.319,711.888z"/>
		<path style="clip-path:url(#SVGID_00000034085153932900446430000004090527813596008321_);fill:#FFFFFF;" d="M2403.122,734.496
			c81.016,0.821,81.016,0.821,88.896-103.23c7.88-104.052,7.88-104.052-27.896-129.56c-35.777-25.508-35.777-25.508-61.306-20.988
			c-43.729,7.743-36.306,0.248-60.055,135.408C2322.106,733.675,2322.106,733.675,2403.122,734.496z"/>
		<path style="clip-path:url(#SVGID_00000034085153932900446430000004090527813596008321_);fill:#FFFFFF;" d="M1343.404,709.632
			c115.631,14.462,110.391,21.916,74.181-99.423c-35.024-93.763-35.024-93.763-56.212-88.016
			c-21.188,5.747-21.188,5.747-65.101,86.341C1256.282,698.736,1256.282,698.736,1343.404,709.632z"/>
		<path style="clip-path:url(#SVGID_00000034085153932900446430000004090527813596008321_);fill:#FFFFFF;" d="M2636.564,722.811
			c88.415-25.424,88.415-25.424,109.126-62.983c20.711-37.56,20.711-37.56-26.521-82.72c-47.232-45.16-47.232-45.16-103.762-43.345
			c-56.53,1.814-59.112,1.651-64.427,106.086C2545.469,748.131,2548.149,748.234,2636.564,722.811z"/>
		<path style="clip-path:url(#SVGID_00000034085153932900446430000004090527813596008321_);fill:#FFFFFF;" d="M2936.073,695.336
			c62.614,64.122,62.614,64.122,105.583,39.632c42.969-24.491,42.969-24.491,42.969-82.758c0-58.267,0-58.267-105.583-39.631
			C2873.459,631.214,2873.459,631.214,2936.073,695.336z"/>
		<path style="clip-path:url(#SVGID_00000034085153932900446430000004090527813596008321_);fill:#FFFFFF;" d="M110.874,727.618
			c35.814,28.708,35.814,28.708,95.411,2.702c59.596-26.005,59.596-26.005,64.027-94.771c4.431-68.766,4.431-68.766-35.317-90.779
			c-39.748-22.013-39.748-22.013-92.386,18.356c-52.638,40.37-52.638,40.37-60.094,88.078
			C75.06,698.91,75.06,698.91,110.874,727.618z"/>
		<path style="clip-path:url(#SVGID_00000034085153932900446430000004090527813596008321_);fill:#FFFFFF;" d="M358.34,740.274
			c32.84,30.163,32.84,30.163,62.578,30.909c29.738,0.746,29.738,0.746,63.759-47.601c34.02-48.347,34.02-48.347-10.374-113.25
			c-44.394-64.903-44.394-64.903-92.158-51.484c-47.764,13.419-47.764,13.419-52.205,82.341
			C325.5,710.111,325.5,710.111,358.34,740.274z"/>
		<path style="clip-path:url(#SVGID_00000034085153932900446430000004090527813596008321_);fill:#FFFFFF;" d="M1773.844,688.272
			c9.566,31.784,9.566,31.784,67.588,67.646c58.022,35.862,58.022,35.862,92.59,36.183c34.568,0.32,34.568,0.32,74.109-37.671
			c39.54-37.991,39.54-37.991,24-86.154c-15.541-48.163-15.541-48.163-90.448-66.398c-74.907-18.235-74.907-18.235-123.89,10.43
			C1764.278,656.488,1764.278,656.488,1773.844,688.272z"/>
		<path style="clip-path:url(#SVGID_00000034085153932900446430000004090527813596008321_);fill:#FFFFFF;" d="M959.66,707.405
			c4.728,28.696,4.728,28.696,69.27,99.892c64.542,71.197,64.542,71.197,93.72,58.63c29.178-12.566,29.178-12.566,47.766-72.306
			c13.895-71.236,13.895-71.236-38.661-102.776c-52.556-31.54-52.556-31.54-114.689-21.838
			C954.933,678.71,954.933,678.71,959.66,707.405z"/>
		<path style="clip-path:url(#SVGID_00000034085153932900446430000004090527813596008321_);fill:#FFFFFF;" d="M2798.874,802.225
			c20.52,70.641,20.52,70.641,79.923,82.345c59.404,11.705,59.404,11.705,74.402-42.11c14.998-53.815,14.999-53.815-51.113-121.518
			c-81.612-65.744-81.612-65.744-102.672-27.551C2778.354,731.584,2778.354,731.584,2798.874,802.225z"/>
		<path style="clip-path:url(#SVGID_00000034085153932900446430000004090527813596008321_);fill:#FFFFFF;" d="M1496.705,830.314
			c9.018,64.456,9.018,64.456,67.438,84.026c58.42,19.57,58.42,19.57,102.842-73.897s44.422-93.467,35.416-123.39
			c-9.006-29.923-9.006-29.923-104.548-2.057C1476.182,750.485,1483.868,738.566,1496.705,830.314z"/>
		<path style="clip-path:url(#SVGID_00000034085153932900446430000004090527813596008321_);fill:#FFFFFF;" d="M533.68,863.42
			c39.694,53.913,39.694,53.913,76.203,61.12c64.852,12.802,59.038,13.63,60.356-106.512c1.143-104.123,1.143-104.123-53.56-104.633
			s-54.703-0.509-88.698,47.801C493.986,809.508,493.985,809.508,533.68,863.42z"/>
		<path style="clip-path:url(#SVGID_00000034085153932900446430000004090527813596008321_);fill:#FFFFFF;" d="M762.329,919.695
			c36.938,7.302,36.938,7.302,88.489-86.443c51.551-93.745,51.551-93.745,46.565-124.003c-4.986-30.258-4.986-30.258-39.736-57.884
			c-34.75-27.625-34.75-27.625-82.349,11.578c-47.6,39.204-47.6,39.204-48.753,144.326
			C725.391,912.393,725.391,912.393,762.329,919.695z"/>
		<path style="clip-path:url(#SVGID_00000034085153932900446430000004090527813596008321_);fill:#FFFFFF;" d="M1284.693,917.531
			c69.392,44.411,69.392,44.411,112.868,16.398c43.475-28.013,43.475-28.013,34.618-91.322
			c-8.858-63.309-8.858-63.309-94.922-74.074c-86.065-10.765-86.065-10.765-104.01,46.911
			C1215.3,873.12,1215.3,873.12,1284.693,917.531z"/>
		<path style="clip-path:url(#SVGID_00000034085153932900446430000004090527813596008321_);fill:#FFFFFF;" d="M2566.946,846.318
			c11.997,46.103,11.997,46.103,74.483,67.437c62.486,21.335,62.486,21.335,93.666-1.869c31.179-23.204,31.179-23.204,11.176-92.068
			c-20.005-68.864-20.004-68.864-105.664-44.233C2554.948,800.216,2554.948,800.216,2566.946,846.318z"/>
		<path style="clip-path:url(#SVGID_00000034085153932900446430000004090527813596008321_);fill:#FFFFFF;" d="M3043.911,957.778
			c50.81,19.507,50.81,19.507,50.81-88.066c0-107.573,0-107.573-41.093-84.151c-41.094,23.422-41.094,23.422-56.572,78.96
			C2976.832,937.083,2973.079,930.585,3043.911,957.778z"/>
		<path style="clip-path:url(#SVGID_00000034085153932900446430000004090527813596008321_);fill:#FFFFFF;" d="M167.392,906.265
			c0.352,89.758,0.352,89.758,20.251,97.12c19.899,7.361,19.899,7.361,47.146,3.175c27.247-4.185,27.247-4.186,70.838-93.874
			c43.591-89.689,43.591-89.689,11.858-118.835c-31.733-29.146-31.733-29.146-91.089-3.246
			C167.04,816.506,167.04,816.506,167.392,906.265z"/>
		<path style="clip-path:url(#SVGID_00000034085153932900446430000004090527813596008321_);fill:#FFFFFF;" d="M34.339,1017.708
			c78.426-20.966,78.426-20.966,78.072-111.008c-0.353-90.042-0.353-90.042-36.477-118.999
			c-36.124-28.955-36.124-28.955-78.072-13.68c-41.949,15.276-41.949,15.276-41.949,139.964
			C-44.086,1038.673-44.086,1038.673,34.339,1017.708z"/>
		<path style="clip-path:url(#SVGID_00000034085153932900446430000004090527813596008321_);fill:#FFFFFF;" d="M872.936,987.09
			c36.124,30.107,36.124,30.107,94.887,7.028c58.763-23.079,58.763-23.079,76.321-52.199c17.557-29.12,17.557-29.12-44.87-97.985
			s-62.427-68.864-112.445,22.092C836.813,956.982,836.813,956.982,872.936,987.09z"/>
		<path style="clip-path:url(#SVGID_00000034085153932900446430000004090527813596008321_);fill:#FFFFFF;" d="M1741.11,963.902
			c64.676-8.124,64.676-8.124,92.62-67.805c27.944-59.681,27.944-59.681-26.899-93.579c-54.843-33.898-54.843-33.898-98.776,58.542
			C1651.259,980.564,1648.37,975.55,1741.11,963.902z"/>
		<path style="clip-path:url(#SVGID_00000034085153932900446430000004090527813596008321_);fill:#FFFFFF;" d="M2033.375,897.614
			c12.255,59.074,12.255,59.074,45.417,80.099c33.162,21.026,33.162,21.026,89.431,19.085c56.269-1.941,56.269-1.941,58.504-93.109
			c2.234-91.168,2.234-91.168-62.452-115.854c-64.686-24.687-64.686-24.687-103.92,13.01
			C2021.12,838.541,2021.12,838.541,2033.375,897.614z"/>
		<path style="clip-path:url(#SVGID_00000034085153932900446430000004090527813596008321_);fill:#FFFFFF;" d="M2324.274,1050.754
			c33.808,39.741,40.915,39.548,75.506,18.031c34.592-21.517,34.592-21.517,75.682-86.964c41.09-65.447,41.09-65.447,28.567-113.569
			c-19.17-53.521-19.17-53.521-104.299-54.384c-119.845-1.214-104.072-14.71-106.981,103.992
			C2290.466,1011.013,2290.466,1011.013,2324.274,1050.754z"/>
		<path style="clip-path:url(#SVGID_00000034085153932900446430000004090527813596008321_);fill:#FFFFFF;" d="M349.438,1029.953
			c43.515,16.025,43.515,16.025,111.212-34.684c67.698-50.71,67.698-50.71,28.617-103.79c-39.081-53.08-39.081-53.08-68.202-53.811
			c-29.12-0.73-29.12-0.73-72.131,87.765C305.923,1013.927,305.923,1013.927,349.438,1029.953z"/>
		<path style="clip-path:url(#SVGID_00000034085153932900446430000004090527813596008321_);fill:#FFFFFF;" d="M1879.506,991.615
			c30.56,21.82,30.56,21.82,72.303-1.743c41.744-23.564,41.744-23.564,29.804-81.117c-11.939-57.554-11.939-57.554-44.398-57.855
			c-32.458-0.301-32.458-0.301-60.364,59.297C1848.947,969.795,1848.947,969.795,1879.506,991.615z"/>
		<path style="clip-path:url(#SVGID_00000034085153932900446430000004090527813596008321_);fill:#FFFFFF;" d="M2748.359,1049.363
			c1.176,67.84,7.087,77.632,62.198,77.415c55.11-0.217,55.11-0.217,94.259-75.747c49.537-95.574,55.196-87.372-32.9-104.73
			c-61.201-12.059-61.201-12.059-92.967,11.581C2747.183,981.523,2747.183,981.523,2748.359,1049.363z"/>
		<path style="clip-path:url(#SVGID_00000034085153932900446430000004090527813596008321_);fill:#FFFFFF;" d="M1145.674,1078.834
			c57.461,77.158,57.461,77.158,107.152,58.76c49.691-18.399,49.691-18.399,60.088-74.701
			c10.396-56.303,10.396-56.303-59.467-101.014c-69.862-44.712-69.862-44.712-99.862-31.792c-30,12.92-30,12.92-47.686,42.254
			C1088.213,1001.676,1088.213,1001.676,1145.674,1078.834z"/>
		<path style="clip-path:url(#SVGID_00000034085153932900446430000004090527813596008321_);fill:#FFFFFF;" d="M2586.981,1086.517
			c101.313,23.605,101.312,23.605,100.194-40.905c-1.118-64.51-1.118-64.51-62.478-85.46s-61.36-20.95-100.194,40.905
			C2485.668,1062.911,2485.668,1062.911,2586.981,1086.517z"/>
		<path style="clip-path:url(#SVGID_00000034085153932900446430000004090527813596008321_);fill:#FFFFFF;" d="M1736.224,1103.264
			c52.149,54.709,52.149,54.709,91.277,54.745c39.128,0.036,39.128,0.036,43.309-52.094c4.18-52.13,4.18-52.13-27.534-74.775
			c-31.714-22.644-31.714-22.644-95.997-14.57C1669.792,1026.303,1656.519,1019.647,1736.224,1103.264z"/>
		<path style="clip-path:url(#SVGID_00000034085153932900446430000004090527813596008321_);fill:#FFFFFF;" d="M1950.718,1192.655
			c29.715,25.825,29.715,25.825,77.825-57.468c48.111-83.293,48.111-83.293,16.881-103.094
			c-31.229-19.801-31.229-19.801-73.545,4.085c-42.315,23.886-42.315,23.886-46.596,77.269
			C1921.003,1166.83,1921.003,1166.83,1950.718,1192.655z"/>
		<path style="clip-path:url(#SVGID_00000034085153932900446430000004090527813596008321_);fill:#FFFFFF;" d="M1427.166,1181.939
			c80.333,68.963,64.316,70.706,134.08-40.818c49.1-78.49,67.011-97.474,47.264-127.185c-7.023-10.566-7.023-10.566-67.235-30.737
			s-60.212-20.17-104.546,8.396s-44.334,28.566-54.848,85.505C1371.368,1134.038,1371.368,1134.038,1427.166,1181.939z"/>
		<path style="clip-path:url(#SVGID_00000034085153932900446430000004090527813596008321_);fill:#FFFFFF;" d="M453.099,1143.229
			c29.654,57.195,29.654,57.195,59.345,63.868c29.691,6.672,29.691,6.672,56.745-6.932c27.055-13.604,27.055-13.604,43.424-108.163
			s16.369-94.559-18.164-101.376c-34.534-6.817-34.534-6.817-102.769,44.296C423.444,1086.034,423.444,1086.034,453.099,1143.229z"
			/>
		<path style="clip-path:url(#SVGID_00000034085153932900446430000004090527813596008321_);fill:#FFFFFF;" d="M720.027,1208.967
			c65.839,21.035,65.839,21.035,102.172-14.058c36.332-35.093,36.332-35.093,39.36-81.579c3.028-46.487,3.028-46.487-34.484-77.751
			c-37.512-31.265-37.512-31.265-77.17-39.105c-66.474-13.14-60.149-14.003-79.317,96.725
			C654.187,1187.933,654.187,1187.933,720.027,1208.967z"/>
		<path style="clip-path:url(#SVGID_00000034085153932900446430000004090527813596008321_);fill:#FFFFFF;" d="M2965.474,1226.558
			c58.016,70.844,58.016,70.844,90.013,63.459c31.997-7.384,31.997-7.384,31.997-125.745c0-118.362,0-118.362-51.341-138.072
			c-51.34-19.711-51.34-19.711-90.013,54.902C2907.458,1155.713,2907.458,1155.713,2965.474,1226.558z"/>
		<path style="clip-path:url(#SVGID_00000034085153932900446430000004090527813596008321_);fill:#FFFFFF;" d="M1012.376,1225.469
			c87.359,56.306,87.359,56.306,117.924,8.89c30.566-47.415,30.566-47.415-26.833-124.491
			c-57.399-77.075-57.399-77.075-114.956-54.47c-57.557,22.605-57.557,22.605-60.526,68.185
			C925.016,1169.163,925.016,1169.163,1012.376,1225.469z"/>
		<path style="clip-path:url(#SVGID_00000034085153932900446430000004090527813596008321_);fill:#FFFFFF;" d="M2032.27,1267.701
			c11.532,27.172,11.532,27.172,101.03,14.489c89.497-12.682,89.497-12.682,128.178-76.099c38.68-63.417,38.68-63.417,5.493-102.428
			c-33.187-39.011-33.187-39.011-90.049-37.05c-56.862,1.961-56.862,1.961-106.523,87.939
			C2020.738,1240.53,2020.738,1240.53,2032.27,1267.701z"/>
		<path style="clip-path:url(#SVGID_00000034085153932900446430000004090527813596008321_);fill:#FFFFFF;" d="M2488.318,1227.615
			c83.907,79.012,83.906,79.012,118.656,67.089c34.75-11.923,34.75-11.923,56.979-69.275c16.539-66.779,16.539-66.779-89.761-91.546
			c-106.3-24.767-106.3-24.767-138.04-5.023C2404.411,1148.604,2404.411,1148.604,2488.318,1227.615z"/>
		<path style="clip-path:url(#SVGID_00000034085153932900446430000004090527813596008321_);fill:#FFFFFF;" d="M1563.179,1264.151
			c16.533,12.727,16.533,12.727,77.178,9.12c60.645-3.606,60.645-3.606,86.807-46.204c26.162-42.598,26.162-42.598-23.587-94.789
			c-49.749-52.191-49.749-52.191-103.339,33.477C1546.646,1251.424,1546.646,1251.424,1563.179,1264.151z"/>
		<path style="clip-path:url(#SVGID_00000034085153932900446430000004090527813596008321_);fill:#FFFFFF;" d="M242.143,1202.681
			c14.357,118.894,14.357,118.894,42.517,124.887c28.16,5.993,28.16,5.993,87.654-48.325
			c59.495-54.318,59.495-54.318,29.639-111.901c-29.856-57.584-29.856-57.584-75.977-74.569
			c-46.121-16.986-46.121-16.985-72.155-12.986C227.787,1083.787,227.787,1083.787,242.143,1202.681z"/>
		<path style="clip-path:url(#SVGID_00000034085153932900446430000004090527813596008321_);fill:#FFFFFF;" d="M42.067,1237.595
			c71.614,124.857,71.614,124.857,113.9,105.955c42.286-18.903,42.286-18.903,27.818-138.718
			c-17.304-143.305-6.422-147.409-133.862-113.34C-29.547,1112.737-29.547,1112.737,42.067,1237.595z"/>
		<path style="clip-path:url(#SVGID_00000034085153932900446430000004090527813596008321_);fill:#FFFFFF;" d="M2775.052,1354.411
			c62.035,50.609,62.035,50.609,98.556,52.499c36.522,1.89,36.522,1.89,72.771-36.335c36.25-38.224,36.25-38.224-21.629-108.9
			c-57.879-70.677-57.879-70.676-113.029-70.459c-55.15,0.218-55.15,0.218-76.927,56.402
			C2713.017,1303.802,2713.017,1303.802,2775.052,1354.411z"/>
		<path style="clip-path:url(#SVGID_00000034085153932900446430000004090527813596008321_);fill:#FFFFFF;" d="M1800.568,1355.342
			c45.708,56.237,45.708,56.237,100.146,34.548c54.439-21.688,54.438-21.688,64.966-42.376
			c10.527-20.688,10.527-20.688-1.622-49.314c-12.149-28.626-12.149-28.626-44.192-56.474
			c-32.043-27.849-32.043-27.849-72.33-27.885c-40.287-0.037-40.287-0.037-66.481,42.614
			C1754.861,1299.105,1754.861,1299.106,1800.568,1355.342z"/>
		<path style="clip-path:url(#SVGID_00000034085153932900446430000004090527813596008321_);fill:#FFFFFF;" d="M1158.26,1361.639
			c1.654,35.24,1.654,35.24,66.37,79.587c64.715,44.346,64.715,44.346,135.827-56.951c71.112-101.297,71.112-101.297,16.474-148.202
			c-54.638-46.904-54.638-46.904-105.355-28.126c-50.717,18.778-50.717,18.778-82.844,68.615
			C1156.605,1326.399,1156.605,1326.399,1158.26,1361.639z"/>
		<path style="clip-path:url(#SVGID_00000034085153932900446430000004090527813596008321_);fill:#FFFFFF;" d="M15.153,1410.772
			c64.242-11.934,73.305-24.781,4.532-144.686c-68.774-119.904-68.774-119.904-68.774,18.358S-49.089,1422.707,15.153,1410.772z"/>
		<path style="clip-path:url(#SVGID_00000034085153932900446430000004090527813596008321_);fill:#FFFFFF;" d="M839.578,1405.241
			c7.204,114.284,13.898,125.315,128.764,62.024c114.867-63.292,114.867-63.292,113.254-97.645
			c-1.613-34.353-1.613-34.353-89.624-91.079c-88.011-56.727-88.011-56.727-123.804-22.155
			C832.374,1290.958,832.374,1290.958,839.578,1405.241z"/>
		<path style="clip-path:url(#SVGID_00000034085153932900446430000004090527813596008321_);fill:#FFFFFF;" d="M593.352,1350.712
			c14.098,72.713,14.098,72.713,100.036,117.575c85.938,44.863,85.938,44.863,79.039-64.586
			c-6.899-109.448-6.899-109.448-73.734-130.801c-66.834-21.352-66.834-21.352-93.137-8.126
			C579.254,1277.999,579.254,1277.999,593.352,1350.712z"/>
		<path style="clip-path:url(#SVGID_00000034085153932900446430000004090527813596008321_);fill:#FFFFFF;" d="M2292.488,1322.594
			c9.945,22.744,9.944,22.744,66.048,60.892c56.104,38.148,56.104,38.148,107.1,16.987c50.996-21.161,50.997-21.16,61.283-44.208
			c10.287-23.047,11.666-24.536-75.193-103.54c-90.042-81.899-91.444-80.331-130.313-16.603
			C2282.545,1299.849,2282.545,1299.849,2292.488,1322.594z"/>
		<path style="clip-path:url(#SVGID_00000034085153932900446430000004090527813596008321_);fill:#FFFFFF;" d="M380.596,1431.046
			c34.333,56.551,34.333,56.551,102.104,24.452c67.771-32.099,67.771-32.099,53.774-104.293
			c-13.997-72.195-13.997-72.195-42.736-78.653c-28.739-6.459-28.739-6.459-88.107,47.742
			C346.264,1374.496,346.264,1374.496,380.596,1431.046z"/>
		<path style="clip-path:url(#SVGID_00000034085153932900446430000004090527813596008321_);fill:#FFFFFF;" d="M1615.032,1398.608
			c19.479,68.537,19.479,68.537,90.578,70.96c71.099,2.423,71.099,2.422,84.737-15.457c13.637-17.879,13.637-17.879-32.321-74.424
			c-45.958-56.545-45.958-56.545-104.216-53.081C1595.552,1330.07,1595.552,1330.07,1615.032,1398.608z"/>
		<path style="clip-path:url(#SVGID_00000034085153932900446430000004090527813596008321_);fill:#FFFFFF;" d="M1345.657,1552.762
			c15.49,35.599,15.49,35.599,80.806,35.599s65.316,0,106.684-53.373c41.368-53.373,41.368-53.373,21.027-124.944
			c-20.342-71.571-20.342-71.571-38.219-85.332c-37.635-28.971-35.369-21.818-113.382,89.309
			C1330.166,1517.163,1330.166,1517.163,1345.657,1552.762z"/>
		<path style="clip-path:url(#SVGID_00000034085153932900446430000004090527813596008321_);fill:#FFFFFF;" d="M2615.281,1500.17
			c34.065,85.412,34.065,85.412,106.24,13.859c72.175-71.554,72.175-71.554,11.458-121.088
			c-60.717-49.534-60.717-49.534-95.67-37.541c-34.953,11.993-34.953,11.993-45.523,35.676
			C2581.216,1414.758,2581.216,1414.758,2615.281,1500.17z"/>
		<path style="clip-path:url(#SVGID_00000034085153932900446430000004090527813596008321_);fill:#FFFFFF;" d="M2061.694,1498.18
			c44.694,93.782,44.694,93.782,81.545,93.782c36.851,0,36.851,0,64.62-104.735c27.77-104.735,27.77-104.735,18.159-126.717
			c-9.611-21.983-9.611-21.983-99.001-9.316c-89.39,12.667-89.39,12.667-99.703,32.936
			C2017,1404.399,2017,1404.399,2061.694,1498.18z"/>
		<path style="clip-path:url(#SVGID_00000034085153932900446430000004090527813596008321_);fill:#FFFFFF;" d="M2379.192,1535.58
			c9.213-64.202,9.213-64.202-44.125-100.47c-53.337-36.267-53.337-36.267-79.976,64.202
			c-26.639,100.469-26.639,100.469,44.125,100.469C2369.979,1599.782,2369.979,1599.782,2379.192,1535.58z"/>
		<path style="clip-path:url(#SVGID_00000034085153932900446430000004090527813596008321_);fill:#FFFFFF;" d="M155.814,1521.096
			c18.586,76.442,18.586,76.442,110.422,76.442c91.837,0,91.837,0,96.497-38.601c4.66-38.603,4.66-38.603-31.032-97.394
			c-35.693-58.792-35.693-58.792-65.128-65.056c-29.436-6.265-29.436-6.265-74.355,13.815
			C126.539,1439.66,132.709,1426.066,155.814,1521.096z"/>
		<path style="clip-path:url(#SVGID_00000034085153932900446430000004090527813596008321_);fill:#FFFFFF;" d="M2571.138,1519.225
			c-33.518-84.042-33.518-84.042-82.865-63.566c-49.346,20.476-49.346,20.476-58.468,84.041
			c-9.121,63.566-9.121,63.566,82.865,63.566S2604.656,1603.267,2571.138,1519.225z"/>
		<path style="clip-path:url(#SVGID_00000034085153932900446430000004090527813596008321_);fill:#FFFFFF;" d="M2968.011,1523.215
			c13.777,71.084,13.777,71.084,68.868,71.084c55.092,0,55.092,0,55.092-117.663c0-117.662,0-117.662-31.614-110.366
			c-31.614,7.296-31.614,7.296-68.868,46.579C2954.235,1452.132,2954.235,1452.132,2968.011,1523.215z"/>
		<path style="clip-path:url(#SVGID_00000034085153932900446430000004090527813596008321_);fill:#FFFFFF;" d="M773.828,1590.227
			c1.964-16.565-6.402-30.351-95.972-77.109c-89.57-46.759-89.57-46.759-158.915-13.914c-69.345,32.845-69.345,32.845-73.857,70.216
			c-4.512,37.371-4.512,37.371,161.134,37.371S771.863,1606.791,773.828,1590.227z"/>
		<path style="clip-path:url(#SVGID_00000034085153932900446430000004090527813596008321_);fill:#FFFFFF;" d="M1836.683,1552.359
			c4.341,49.416,4.341,49.416,111.918,49.416c107.578,0,107.578,0,64.549-90.288c-43.029-90.288-43.029-90.288-97.206-68.703
			c-54.178,21.584-54.177,21.584-68.889,40.872C1832.343,1502.944,1832.343,1502.944,1836.683,1552.359z"/>
		<path style="clip-path:url(#SVGID_00000034085153932900446430000004090527813596008321_);fill:#FFFFFF;" d="M101.251,1531.625
			c-17.945-73.808-17.945-73.808-81.729-61.958c-63.784,11.849-63.784,11.849-63.784,73.807c0,61.958,0,61.958,81.73,61.958
			S119.197,1605.433,101.251,1531.625z"/>
		<path style="clip-path:url(#SVGID_00000034085153932900446430000004090527813596008321_);fill:#FFFFFF;" d="M1772.089,1563.284
			c-4.178-47.557-4.178-47.557-74.858-49.966c-70.68-2.408-70.68-2.409-109.408,47.557c-38.727,49.966-38.727,49.966,74.858,49.966
			C1776.266,1610.841,1776.266,1610.841,1772.089,1563.284z"/>
		<path style="clip-path:url(#SVGID_00000034085153932900446430000004090527813596008321_);fill:#FFFFFF;" d="M2915.043,1536.217
			c-13.431-69.301-13.431-69.301-48.745-71.128c-35.315-1.827-35.315-1.827-107.061,69.301
			c-71.746,71.128-71.746,71.128,48.746,71.128C2928.474,1605.517,2928.474,1605.517,2915.043,1536.217z"/>
		<path style="clip-path:url(#SVGID_00000034085153932900446430000004090527813596008321_);fill:#FFFFFF;" d="M1257.763,1570.879
			c-14.831-34.083-14.831-34.083-80.878-79.342c-66.047-45.259-66.047-45.259-182.01,18.638
			c-115.964,63.896-115.964,63.896-117.795,79.342c-1.831,15.446-1.831,15.446,196.841,15.446S1272.594,1604.962,1257.763,1570.879z
			"/>
	</g>
</g>
</svg>
